<?xml version="1.0" encoding="UTF-8"?>
<svg version="1.1" xmlns="http://www.w3.org/2000/svg" width="500" height="500">
<path d="M0 0 C2.52958606 2.52958606 2.61862558 4.17073329 3.2890625 7.6640625 C3.50820312 8.78554687 3.72734375 9.90703125 3.953125 11.0625 C4.17484375 12.238125 4.3965625 13.41375 4.625 14.625 C4.96917969 16.40003906 4.96917969 16.40003906 5.3203125 18.2109375 C5.88710575 21.1393693 6.44668234 24.06899732 7 27 C7.4439209 26.21761963 7.8878418 25.43523926 8.34521484 24.62915039 C9.99214856 21.73246941 11.64382831 18.83860742 13.29882812 15.9465332 C14.01462491 14.69340166 14.72850272 13.43917199 15.44042969 12.18383789 C16.46308932 10.38136468 17.49254744 8.58293177 18.5234375 6.78515625 C19.450354 5.15912476 19.450354 5.15912476 20.39599609 3.50024414 C22 1 22 1 24 0 C24.33 12.21 24.66 24.42 25 37 C23.35 37 21.7 37 20 37 C19.505 26.605 19.505 26.605 19 16 C18.08476562 17.57652344 17.16953125 19.15304688 16.2265625 20.77734375 C15.02631642 22.83088978 13.82578061 24.88426649 12.625 26.9375 C12.02171875 27.97841797 11.4184375 29.01933594 10.796875 30.09179688 C9.92675781 31.57583008 9.92675781 31.57583008 9.0390625 33.08984375 C8.50490723 34.00628662 7.97075195 34.92272949 7.42041016 35.86694336 C6 38 6 38 4 39 C1.525 27.615 1.525 27.615 -1 16 C-3.97 22.93 -6.94 29.86 -10 37 C-11.65 37 -13.3 37 -15 37 C-13.4390011 33.08273346 -11.87591627 29.16630231 -10.3125 25.25 C-9.87744141 24.15816406 -9.44238281 23.06632812 -8.99414062 21.94140625 C-6.0617363 14.59953467 -3.0617541 7.28887034 0 0 Z " fill="#020202" transform="translate(179,230)"/>
<path d="M0 0 C2.87029869 1.79393668 4.49131638 2.98263276 6 6 C6.125 9.5625 6.125 9.5625 6 13 C5 14 5 14 3.14233398 14.11352539 C2.35157471 14.10828857 1.56081543 14.10305176 0.74609375 14.09765625 C-0.10791016 14.09443359 -0.96191406 14.09121094 -1.84179688 14.08789062 C-2.73962891 14.07951172 -3.63746094 14.07113281 -4.5625 14.0625 C-5.46419922 14.05798828 -6.36589844 14.05347656 -7.29492188 14.04882812 C-9.53001314 14.03700225 -11.76497437 14.0205222 -14 14 C-13.67 15.32 -13.34 16.64 -13 18 C-11.5629191 18.05422947 -10.12524538 18.09289723 -8.6875 18.125 C-7.88699219 18.14820313 -7.08648437 18.17140625 -6.26171875 18.1953125 C-3.71611424 18.15817322 -3.71611424 18.15817322 -1 16 C1.6875 15.875 1.6875 15.875 4 16 C-1.34576067 23.02585689 -1.34576067 23.02585689 -6 24 C-10.04256368 24.05659589 -13.04241744 23.63838838 -16.4375 21.375 C-18.6042771 18.08149881 -19 15.95367895 -19 12 C-17.6707779 7.58301972 -15.68309046 4.63543298 -12.3125 1.5 C-8.06270266 -0.42443653 -4.59250476 -0.86268045 0 0 Z M-12 7 C-12.33 7.99 -12.66 8.98 -13 10 C-8.38 10 -3.76 10 1 10 C0.37158027 6.0285831 0.37158027 6.0285831 -2 4 C-6.206845 3.43150743 -8.63872845 4.47904634 -12 7 Z " fill="#040404" transform="translate(331,244)"/>
<path d="M0 0 C3.0625 1.9375 3.0625 1.9375 5 5 C5 7.97 5 10.94 5 14 C-1.27 14 -7.54 14 -14 14 C-13.34 15.32 -12.68 16.64 -12 18 C-6.67829506 18.29562367 -6.67829506 18.29562367 -2 16 C0.6875 15.875 0.6875 15.875 3 16 C1.2566015 20.20362583 -0.80770028 21.45433056 -4.84375 23.296875 C-8.29093606 24.42095741 -10.57915917 24.09725083 -14 23 C-16.9375 20.9375 -16.9375 20.9375 -19 18 C-19.68836173 13.18146792 -19.54493359 11.08986719 -17.375 6.75 C-12.38629248 0.97360182 -7.58909479 -1.56246069 0 0 Z M-10.9375 5.8125 C-13.22867096 7.74144591 -13.22867096 7.74144591 -13 10 C-8.38 10 -3.76 10 1 10 C0.34 8.35 -0.32 6.7 -1 5 C-6.19115831 3.745993 -6.19115831 3.745993 -10.9375 5.8125 Z " fill="#040404" transform="translate(278,244)"/>
<path d="M0 0 C1.65 0 3.3 0 5 0 C4.01 6.27 3.02 12.54 2 19 C8.52782566 18.72824277 8.52782566 18.72824277 10.83203125 16.359375 C12.31069582 13.37237366 13.00285383 10.51021986 13.6875 7.25 C13.93886719 6.07953125 14.19023437 4.9090625 14.44921875 3.703125 C14.63097656 2.81109375 14.81273437 1.9190625 15 1 C16.65 0.67 18.3 0.34 20 0 C19.20736384 7.76783437 17.58110513 15.3629639 16 23 C14.91976562 22.98324219 13.83953125 22.96648437 12.7265625 22.94921875 C8.98701384 22.87258343 8.98701384 22.87258343 5.375 23.8125 C2 24 2 24 -1 22.125 C-3.82273907 17.7144702 -3.05558556 14.95193816 -2 10 C-1.8246875 9.07445312 -1.649375 8.14890625 -1.46875 7.1953125 C-1.00548059 4.79039923 -0.5148521 2.3943122 0 0 Z " fill="#030303" transform="translate(211,244)"/>
<path d="M0 0 C2.66666667 0 5.33333333 0 8 0 C8.9590625 -0.06960937 8.9590625 -0.06960937 9.9375 -0.140625 C10.9584375 -0.19476563 10.9584375 -0.19476563 12 -0.25 C12.680625 -0.29640625 13.36125 -0.3428125 14.0625 -0.390625 C16 0 16 0 17.76171875 1.6875 C19.29141342 4.54421687 19.20048206 6.05485359 18.8125 9.25 C18.69648438 10.21035156 18.58046875 11.17070312 18.4609375 12.16015625 C17.86050936 15.85940422 17.02042271 19.39450642 16 23 C14.68 23 13.36 23 12 23 C12.33 17.06 12.66 11.12 13 5 C7.34672157 5.37684727 7.34672157 5.37684727 5.23046875 7.640625 C3.67481662 10.62352622 3.0033697 13.46014427 2.3125 16.75 C2.06113281 17.92046875 1.80976563 19.0909375 1.55078125 20.296875 C1.27814453 21.63492187 1.27814453 21.63492187 1 23 C-0.65 23 -2.3 23 -4 23 C-2.68 15.41 -1.36 7.82 0 0 Z " fill="#030303" transform="translate(290,244)"/>
<path d="M0 0 C1.32 0 2.64 0 4 0 C4.33 0.66 4.66 1.32 5 2 C5.99 1.34 6.98 0.68 8 0 C14.25276074 -0.55828221 14.25276074 -0.55828221 16.69921875 1.26953125 C19.1144521 4.48258943 18.34842842 8.1558635 18 12 C17.44408233 15.69186352 16.76493874 19.34605158 16 23 C14.35 23 12.7 23 11 23 C11.66 17.39 12.32 11.78 13 6 C9.29135948 4.70276861 9.29135948 4.70276861 6.8515625 5.67578125 C4.53309339 7.33392688 4.15118691 8.47084581 3.375 11.1875 C3.13910156 11.98414063 2.90320313 12.78078125 2.66015625 13.6015625 C2.44230469 14.39304687 2.22445312 15.18453125 2 16 C1.79246094 16.70898438 1.58492187 17.41796875 1.37109375 18.1484375 C0.90029318 19.76167022 0.44800522 21.38028882 0 23 C-1.32 23 -2.64 23 -4 23 C-3.32545897 15.1753241 -1.73123042 7.65443386 0 0 Z " fill="#020202" transform="translate(237,244)"/>
</svg>
